<?xml version="1.0" encoding="UTF-8" standalone="no"?>
<svg
   id="body_1"
   width="24"
   height="24"
   version="1.1"
   sodipodi:docname="print-24.svg"
   inkscape:version="1.2.2 (732a01da63, 2022-12-09)"
   xmlns:inkscape="http://www.inkscape.org/namespaces/inkscape"
   xmlns:sodipodi="http://sodipodi.sourceforge.net/DTD/sodipodi-0.dtd"
   xmlns="http://www.w3.org/2000/svg"
   xmlns:svg="http://www.w3.org/2000/svg">
  <defs
     id="defs9" />
  <sodipodi:namedview
     id="namedview7"
     pagecolor="#ffffff"
     bordercolor="#000000"
     borderopacity="0.25"
     inkscape:showpageshadow="2"
     inkscape:pageopacity="0.0"
     inkscape:pagecheckerboard="0"
     inkscape:deskcolor="#d1d1d1"
     showgrid="true"
     inkscape:zoom="36.541667"
     inkscape:cx="11.958951"
     inkscape:cy="11.644242"
     inkscape:window-width="1379"
     inkscape:window-height="970"
     inkscape:window-x="355"
     inkscape:window-y="49"
     inkscape:window-maximized="0"
     inkscape:current-layer="layer2">
    <inkscape:grid
       type="xygrid"
       id="grid260" />
  </sodipodi:namedview>
  <g
     inkscape:groupmode="layer"
     id="layer1"
     inkscape:label="background">
    <rect
       style="fill:#ffffff"
       id="rect474"
       width="10.125427"
       height="4.5153933"
       x="7.0057011"
       y="3.913341" />
    <rect
       style="fill:#ffffff"
       id="rect476"
       width="10.125428"
       height="5.9110608"
       x="7.0057011"
       y="14.202965" />
    <rect
       style="fill:#ffffff"
       id="rect478"
       width="18.006842"
       height="7.0877986"
       x="3.0102623"
       y="8.8939571"
       ry="0.62941879" />
  </g>
  <g
     inkscape:groupmode="layer"
     id="layer2"
     inkscape:label="foreground">
    <rect
       style="fill:#ffffff"
       id="rect480"
       width="0.02736602"
       height="0.24629419"
       x="13.655644"
       y="11.630559"
       ry="0.01368301" />
    <g
       transform="scale(0.5)"
       id="g4">
      <path
         d="M32.9 15.6L32.9 9L15.1 9L15.1 15.6L12.1 15.6L12.1 6L35.9 6L35.9 15.6L32.9 15.6zM7 18.6L41 18.6L12.1 18.6zM36.95 23.35C 37.35 23.350002 37.7 23.2 38 22.9C 38.300003 22.599998 38.450005 22.25 38.45 21.85C 38.450005 21.45 38.300003 21.1 38 20.800001C 37.7 20.500002 37.35 20.350002 36.95 20.35C 36.550003 20.350002 36.200005 20.500002 35.9 20.800001C 35.600002 21.100002 35.450005 21.45 35.45 21.85C 35.450005 22.25 35.600002 22.6 35.9 22.9C 36.200005 23.2 36.550003 23.350002 36.95 23.35zM32.9 39L32.9 29.4L15.1 29.4L15.1 39zM35.9 42L12.1 42L12.1 33.2L4 33.2L4 20.9C 4 19.4 4.508333 18.141666 5.525 17.125C 6.2027783 16.447224 7.461112 15.93889 9.3 15.6L9.3 15.6L38.7 15.6C 40.2 15.6 41.458336 16.108334 42.475002 17.125C 43.15278 17.802778 43.661114 19.061111 44 20.9L44 20.9L44 33.2L35.9 33.2zM41 30.2L41 20.900002C 41 20.233335 40.783333 19.683336 40.35 19.250002C 39.916664 18.81667 39.366665 18.600002 38.699997 18.600002L38.699997 18.600002L9.3 18.600002C 8.633334 18.600002 8.083334 18.81667 7.65 19.250002C 7.216667 19.683334 7.0000005 20.233334 7 20.9L7 20.9L7 30.2L12.1 30.2L12.1 26.400002L35.9 26.400002L35.9 30.2z"
         stroke="none"
         fill="#000000"
         fill-rule="nonzero"
         id="path2" />
    </g>
  </g>
</svg>
