<?xml version="1.0" encoding="UTF-8" standalone="no"?>
<svg
   height="48"
   width="48"
   version="1.1"
   id="svg1857"
   sodipodi:docname="zoom-out.svg"
   inkscape:version="1.2.2 (732a01da63, 2022-12-09)"
   xmlns:inkscape="http://www.inkscape.org/namespaces/inkscape"
   xmlns:sodipodi="http://sodipodi.sourceforge.net/DTD/sodipodi-0.dtd"
   xmlns="http://www.w3.org/2000/svg"
   xmlns:svg="http://www.w3.org/2000/svg">
  <defs
     id="defs1861" />
  <sodipodi:namedview
     id="namedview1859"
     pagecolor="#ffffff"
     bordercolor="#000000"
     borderopacity="0.25"
     inkscape:showpageshadow="2"
     inkscape:pageopacity="0.0"
     inkscape:pagecheckerboard="0"
     inkscape:deskcolor="#d1d1d1"
     showgrid="false"
     inkscape:zoom="4.9166667"
     inkscape:cx="19.423729"
     inkscape:cy="24"
     inkscape:window-width="1920"
     inkscape:window-height="1057"
     inkscape:window-x="-8"
     inkscape:window-y="-8"
     inkscape:window-maximized="1"
     inkscape:current-layer="layer7" />
  <g
     inkscape:groupmode="layer"
     id="layer7"
     inkscape:label="background"
     style="display:inline">
    <path
       style="fill:#ffffff;stroke-width:56.4926"
       id="path2039"
       sodipodi:type="arc"
       sodipodi:cx="18.711864"
       sodipodi:cy="18.81356"
       sodipodi:rx="11.389831"
       sodipodi:ry="10.677966"
       sodipodi:start="0"
       sodipodi:end="6.2804883"
       sodipodi:arc-type="slice"
       d="M 30.101695,18.81356 A 11.389831,10.677966 0 0 1 18.719544,29.491524 11.389831,10.677966 0 0 1 7.3220442,18.82796 11.389831,10.677966 0 0 1 18.688826,8.1356162 11.389831,10.677966 0 0 1 30.101654,18.784762 l -11.38979,0.0288 z" />
  </g>
  <g
     inkscape:groupmode="layer"
     id="layer6"
     inkscape:label="foreground"
     style="display:inline">
    <path
       d="M 39.8,41.95 26.65,28.8 q -1.5,1.3 -3.5,2.025 -2,0.725 -4.25,0.725 -5.4,0 -9.15,-3.75 Q 6,24.05 6,18.75 6,13.45 9.75,9.7 q 3.75,-3.75 9.1,-3.75 5.3,0 9.025,3.75 3.725,3.75 3.725,9.05 0,2.15 -0.7,4.15 -0.7,2 -2.1,3.75 L 42,39.75 Z M 18.85,28.55 q 4.05,0 6.9,-2.875 Q 28.6,22.8 28.6,18.75 28.6,14.7 25.75,11.825 22.9,8.95 18.85,8.95 q -4.1,0 -6.975,2.875 Q 9,14.7 9,18.75 q 0,4.05 2.875,6.925 2.875,2.875 6.975,2.875 z m -5.1,-8.35 v -3 H 23.8 v 3 z"
       id="path1855" />
  </g>
</svg>
