<?xml version="1.0" encoding="UTF-8" standalone="no"?>
<svg
   height="48"
   width="48"
   version="1.1"
   id="svg4"
   sodipodi:docname="zoom-in.svg"
   inkscape:version="1.2.2 (732a01da63, 2022-12-09)"
   xmlns:inkscape="http://www.inkscape.org/namespaces/inkscape"
   xmlns:sodipodi="http://sodipodi.sourceforge.net/DTD/sodipodi-0.dtd"
   xmlns="http://www.w3.org/2000/svg"
   xmlns:svg="http://www.w3.org/2000/svg">
  <defs
     id="defs8" />
  <sodipodi:namedview
     id="namedview6"
     pagecolor="#ffffff"
     bordercolor="#000000"
     borderopacity="0.25"
     inkscape:showpageshadow="2"
     inkscape:pageopacity="0.0"
     inkscape:pagecheckerboard="0"
     inkscape:deskcolor="#d1d1d1"
     showgrid="false"
     inkscape:zoom="4.9166667"
     inkscape:cx="15.661017"
     inkscape:cy="24"
     inkscape:window-width="1920"
     inkscape:window-height="1057"
     inkscape:window-x="-8"
     inkscape:window-y="-8"
     inkscape:window-maximized="1"
     inkscape:current-layer="layer3" />
  <g
     inkscape:groupmode="layer"
     id="layer3"
     inkscape:label="background">
    <path
       style="fill:#7effff;fill-opacity:1;stroke-width:56.761;stroke-dasharray:none"
       id="path1837"
       sodipodi:type="arc"
       sodipodi:cx="15.254237"
       sodipodi:cy="15.864407"
       sodipodi:rx="7.7288136"
       sodipodi:ry="7.9322033"
       sodipodi:start="0"
       sodipodi:end="0.019586919"
       sodipodi:arc-type="slice"
       d="m 22.983051,15.864407 a 7.7288136,7.9322033 0 0 1 -0.0015,0.155357 l -7.727331,-0.155357 z" />
    <path
       style="fill:#ffffff;fill-opacity:1;stroke-width:69.3717;stroke-dasharray:none"
       id="path1845"
       sodipodi:type="arc"
       sodipodi:cx="18.813559"
       sodipodi:cy="18.813559"
       sodipodi:rx="11.084745"
       sodipodi:ry="11.288135"
       sodipodi:start="0"
       sodipodi:end="6.2804883"
       sodipodi:arc-type="slice"
       d="M 29.898304,18.813559 A 11.084745,11.288135 0 0 1 18.821032,30.101691 11.084745,11.288135 0 0 1 7.7288232,18.828781 11.084745,11.288135 0 0 1 18.791137,7.5254471 11.084745,11.288135 0 0 1 29.898264,18.783114 l -11.084705,0.03045 z" />
  </g>
  <g
     inkscape:groupmode="layer"
     id="layer1"
     inkscape:label="foreground"
     style="display:inline">
    <path
       d="M 39.8,41.95 26.65,28.8 q -1.5,1.3 -3.5,2.025 -2,0.725 -4.25,0.725 -5.4,0 -9.15,-3.75 Q 6,24.05 6,18.75 6,13.45 9.75,9.7 q 3.75,-3.75 9.1,-3.75 5.3,0 9.025,3.75 3.725,3.75 3.725,9.05 0,2.15 -0.7,4.15 -0.7,2 -2.1,3.75 L 42,39.75 Z M 18.85,28.55 q 4.05,0 6.9,-2.875 Q 28.6,22.8 28.6,18.75 28.6,14.7 25.75,11.825 22.9,8.95 18.85,8.95 q -4.1,0 -6.975,2.875 Q 9,14.7 9,18.75 9,22.8 11.875,25.675 14.75,28.55 18.85,28.55 Z M 17.3,24.3 v -4.1 h -4.1 v -3 h 4.1 v -4.05 h 3 v 4.05 h 4.05 v 3 H 20.3 v 4.1 z"
       id="path2" />
  </g>
</svg>
